<?xml version="1.0"?>
<svg xmlns="http://www.w3.org/2000/svg" xmlns:xlink="http://www.w3.org/1999/xlink" xmlns:svgjs="http://svgjs.com/svgjs" version="1.1" width="512" height="512" x="0" y="0" viewBox="0 0 512.00119 512" style="enable-background:new 0 0 512 512" xml:space="preserve" class=""><g><path xmlns="http://www.w3.org/2000/svg" d="m436.933594 237.804688c0-19.558594 35.441406-43.511719 30.617187-61.546876-4.988281-18.667968-47.796875-21.671874-57.253906-38.015624-9.589844-16.578126 9.105469-55.128907-4.34375-68.582032-13.457031-13.453125-52.003906 5.246094-68.582031-4.347656-16.34375-9.453125-19.347656-52.261719-38.015625-57.25-18.039063-4.820312-41.988281 30.617188-61.546875 30.617188s-43.511719-35.4375-61.550782-30.617188c-18.664062 4.988281-21.671874 47.796875-38.011718 57.253906-16.578125 9.589844-55.128906-9.105468-68.582032 4.34375-13.453124 13.453125 5.242188 52.007813-4.347656 68.582032-9.453125 16.34375-52.261718 19.347656-57.25 38.015624-4.824218 18.039063 30.617188 41.988282 30.617188 61.546876 0 19.558593-35.441406 43.511718-30.617188 61.550781 4.988282 18.664062 47.796875 21.671875 57.25 38.011719 9.59375 16.578124-9.105468 55.128906 4.347656 68.582031 13.453126 13.453125 52.003907-5.242188 68.582032 4.347656 16.339844 9.453125 19.347656 52.261719 38.011718 57.25 18.039063 4.824219 41.992188-30.617187 61.550782-30.617187s43.511718 35.441406 61.546875 30.617187c18.667969-4.988281 21.671875-47.796875 38.015625-57.25 16.578125-9.59375 55.128906 9.105469 68.582031-4.347656s-5.246094-52.003907 4.347656-68.582031c9.453125-16.339844 52.261719-19.347657 57.25-38.011719 4.820313-18.039063-30.617187-41.992188-30.617187-61.550781zm0 0" fill="#ffb574" data-original="#ffee8c" style="" class=""/><path xmlns="http://www.w3.org/2000/svg" d="m391.53125 237.800781c0 78.726563-59.167969 143.632813-135.472656 152.65625-5.980469.710938-12.074219 1.074219-18.246094 1.074219-84.902344 0-153.730469-68.828125-153.730469-153.730469 0-84.898437 68.828125-153.714843 153.730469-153.714843 6.171875 0 12.265625.363281 18.246094 1.074218 76.304687 9.023438 135.472656 73.917969 135.472656 152.640625zm0 0" fill="#f28f44" data-original="#f28f44" style="" class=""/><path xmlns="http://www.w3.org/2000/svg" d="m391.53125 237.800781c0 78.726563-59.167969 143.632813-135.472656 152.65625-76.300782-9.023437-135.476563-73.929687-135.476563-152.65625 0-78.722656 59.175781-143.617187 135.476563-152.640625 76.304687 9.023438 135.472656 73.917969 135.472656 152.640625zm0 0" fill="#ffd073" data-original="#ffd073" style="" class=""/><path xmlns="http://www.w3.org/2000/svg" d="m504.402344 449.980469c0 29.824219-24.183594 54.007812-54.019532 54.007812h-195.46875c-39.660156 0-71.820312-32.152343-71.820312-71.820312 0-39.664063 32.160156-71.824219 71.820312-71.824219 3.558594 0 7.054688.277344 10.484376.773438 16.21875-32.210938 49.574218-54.3125 88.113281-54.3125 46.625 0 85.6875 32.371093 95.949219 75.867187 1.023437 4.335937 1.761718 8.789063 2.1875 13.320313v.011718c29.242187.667969 52.753906 24.574219 52.753906 53.976563zm0 0" fill="#ffea74" data-original="#d3ddea" style="" class=""/><path xmlns="http://www.w3.org/2000/svg" d="m387.777344 312.933594c-10.675782-3.964844-22.222656-6.125-34.269532-6.125-38.535156 0-71.878906 22.101562-88.113281 54.300781v.011719c-3.425781-.496094-6.921875-.769532-10.480469-.769532-39.671874 0-71.820312 32.15625-71.820312 71.820313 0 39.667969 32.148438 71.820313 71.820312 71.820313h34.714844c-35.75 0-64.714844-28.976563-64.714844-64.714844 0-31.714844 22.8125-58.101563 52.933594-63.640625 2.980469-.554688 6.03125-.902344 9.144532-1.023438.871093-.027343 1.753906-.050781 2.636718-.050781 11.617188 0 22.527344 3.0625 31.945313 8.4375-1.308594-9.117188-10.734375-17.660156-24.632813-24.542969 7.632813-25.804687 33.601563-49.742187 90.835938-45.523437zm0 0" fill="#fda635" data-original="#97b0cc" style="" class=""/><path xmlns="http://www.w3.org/2000/svg" d="m494.421875 406.894531c-9.757813-9.96875-22.355469-16.226562-36.003906-17.996093-3.347657-21.449219-13.21875-41.292969-28.296875-57 3.375-1.5625 7.039062-3.054688 10.644531-4.523438 14.984375-6.097656 30.480469-12.402344 34.125-26.054688 3.519531-13.148437-6.492187-26.066406-16.171875-38.558593-6.648438-8.582031-14.1875-18.308594-14.1875-24.960938 0-6.648437 7.535156-16.371093 14.183594-24.949219 9.683594-12.492187 19.695312-25.410156 16.175781-38.5625-3.648437-13.652343-19.136719-19.953124-34.113281-26.050781-9.753906-3.96875-20.8125-8.46875-23.902344-13.804687-3.183594-5.503906-1.554688-17.492188-.117188-28.070313 2.15625-15.859375 4.386719-32.261719-5.433593-42.082031-9.816407-9.820312-26.214844-7.589844-42.074219-5.429688-10.574219 1.441407-22.566406 3.070313-28.070312-.113281-5.335938-3.089843-9.835938-14.144531-13.804688-23.902343-6.09375-14.980469-12.398438-30.46875-26.050781-34.113282-13.148438-3.519531-26.066407 6.488282-38.558594 16.167969-8.582031 6.648437-18.304687 14.179687-24.953125 14.179687-6.652344 0-16.378906-7.535156-24.960938-14.183593-12.492187-9.675781-25.40625-19.683594-38.554687-16.167969-13.652344 3.648438-19.957031 19.136719-26.054687 34.117188-3.972657 9.757812-8.472657 20.8125-13.808594 23.898437-5.511719 3.1875-17.496094 1.558594-28.074219.121094-15.855469-2.160157-32.25-4.390625-42.070313 5.425781-9.824218 9.820312-7.59375 26.222656-5.4375 42.082031 1.4375 10.578125 3.066407 22.5625-.121093 28.074219-3.082031 5.332031-14.140625 9.832031-23.898438 13.800781-14.976562 6.097657-30.464843 12.398438-34.113281 26.054688-3.511719 13.148437 6.496094 26.0625 16.175781 38.554687 6.648438 8.578125 14.183594 18.304688 14.183594 24.953125 0 6.652344-7.535156 16.382813-14.1875 24.964844-9.675781 12.492187-19.683594 25.40625-16.171875 38.550781 3.648438 13.65625 19.140625 19.957032 34.125 26.054688 9.753906 3.972656 20.808594 8.46875 23.890625 13.796875 3.1875 5.515625 1.558594 17.503906.121094 28.078125-2.15625 15.859375-4.386719 32.257812 5.433593 42.078125 9.820313 9.820312 26.21875 7.59375 42.078126 5.4375 10.578124-1.441407 22.566406-3.070313 28.078124.117187 5.324219 3.082032 9.824219 14.136719 13.796876 23.894532 6.097656 14.980468 12.402343 30.472656 26.054687 34.121093 1.773437.476563 3.597656.714844 5.472656.714844 2.511719 0 5.128907-.445313 7.867188-1.300781 14.0625 22.375 38.953125 37.285156 67.277343 37.285156h143.03125c4.199219 0 7.605469-3.402344 7.605469-7.601562 0-4.199219-3.40625-7.605469-7.605469-7.605469h-143.03125c-35.410156 0-64.21875-28.808594-64.21875-64.214844 0-35.410156 28.808594-64.21875 64.21875-64.21875 3.097657 0 6.253907.234375 9.382813.691406 3.238281.472657 6.421875-1.179687 7.890625-4.105469 15.574219-30.921874 46.730469-50.128906 81.316406-50.128906 22.792969 0 44.59375 8.464844 61.394532 23.835938 16.695312 15.277344 27.058593 36.039062 29.179687 58.46875.363281 3.839844 3.542969 6.796875 7.394531 6.886718 12.167969.28125 23.5625 5.226563 32.085938 13.933594 8.535156 8.71875 13.234375 20.238282 13.234375 32.441406 0 25.589844-20.816407 46.410157-46.40625 46.410157h-22.023438c-4.199219 0-7.601562 3.402343-7.601562 7.601562s3.402343 7.605469 7.601562 7.605469h22.023438c33.976562 0 61.613281-27.640625 61.613281-61.617188 0-16.203124-6.242188-31.503906-17.578125-43.082031zm-233.296875-53.902343c-2.078125-.164063-4.15625-.246094-6.210938-.246094-22.917968 0-43.585937 9.765625-58.097656 25.347656-62.128906-18.09375-105.132812-75.128906-105.132812-140.292969 0-31.292969 9.75-61.132812 28.195312-86.292969 2.480469-3.386718 1.75-8.144531-1.636718-10.625-3.390626-2.484374-8.144532-1.753906-10.628907 1.636719-20.367187 27.78125-31.136719 60.730469-31.136719 95.28125 0 69.992188 44.945313 131.496094 110.554688 153.175781-7.320312 12.015626-11.542969 26.121094-11.542969 41.191407 0 9.914062 1.84375 19.402343 5.175781 28.160156-.90625.097656-1.730468.066406-2.441406-.125-6.34375-1.695313-11.417968-14.164063-15.894531-25.164063-5.128906-12.601562-10.433594-25.632812-20.269531-31.324218-10.019532-5.792969-24.109375-3.878906-37.738282-2.023438-11.617187 1.578125-24.789062 3.367188-29.277343-1.121094-4.488281-4.488281-2.699219-17.65625-1.121094-29.273437 1.855469-13.628906 3.769531-27.722656-2.023437-37.742187-5.691407-9.835938-18.722657-15.140626-31.324219-20.269532-11-4.476562-23.46875-9.550781-25.164063-15.894531-1.566406-5.863281 6.441406-16.195313 13.503906-25.3125 8.539063-11.023437 17.371094-22.421875 17.371094-34.277344 0-11.851562-8.828125-23.25-17.371094-34.269531-7.0625-9.117188-15.070312-19.449219-13.503906-25.316406 1.695313-6.34375 14.160156-11.414063 25.15625-15.886719 12.605469-5.132813 25.640625-10.433594 31.332032-20.277344 5.792968-10.011719 3.878906-24.105469 2.023437-37.734375-1.578125-11.621094-3.367187-24.792968 1.117187-29.28125 4.488282-4.484375 17.65625-2.691406 29.269532-1.113281 13.632812 1.855469 27.726562 3.773437 37.742187-2.023437 9.839844-5.695313 15.144531-18.726563 20.277344-31.328126 4.476563-10.996093 9.550781-23.460937 15.898437-25.15625 5.867188-1.570312 16.195313 6.433594 25.3125 13.496094 11.023438 8.539063 22.421876 17.367188 34.273438 17.367188s23.246094-8.828125 34.265625-17.363282c9.117187-7.066406 19.453125-15.070312 25.320313-13.5 6.347656 1.695313 11.417968 14.160157 15.894531 25.15625 5.128906 12.601563 10.429687 25.632813 20.273437 31.332032 10.011719 5.792968 24.109375 3.875 37.738282 2.019531 11.617187-1.582031 24.785156-3.375 29.265624 1.113281 4.492188 4.488282 2.703126 17.660156 1.121094 29.28125-1.851562 13.628906-3.769531 27.722656 2.027344 37.738282 5.695312 9.839843 18.726562 15.144531 31.328125 20.273437 10.996094 4.472656 23.460937 9.546875 25.15625 15.890625 1.570313 5.867188-6.4375 16.203125-13.503906 25.320312-8.539063 11.019532-17.371094 22.414063-17.371094 34.265626 0 11.855468 8.832031 23.253906 17.375 34.273437 7.0625 9.117187 15.070313 19.449219 13.5 25.316406-1.695313 6.347657-14.164063 11.421875-25.167969 15.898438-5.835937 2.375-11.824218 4.8125-17.085937 7.699219-9.960938-7.617188-21.117188-13.363282-32.96875-17.035157 9.28125-20.671875 14.15625-43.351562 14.15625-66.152343 0-88.953126-72.371094-161.320313-161.324219-161.320313-41.5 0-80.929688 15.722656-111.023438 44.277344-3.046874 2.890625-3.175781 7.703125-.285156 10.75 2.890625 3.042969 7.703125 3.171875 10.75.28125 27.257813-25.859375 62.96875-40.101563 100.558594-40.101563 80.570312 0 146.117188 65.546875 146.117188 146.113282 0 22.003906-4.746094 43.050781-14.089844 62.660156-5.367188-.828125-10.824219-1.261719-16.332032-1.261719-38.582031 0-73.507812 20.472656-92.382812 53.789063zm0 0" fill="#000000" data-original="#000000" style="" class=""/><path xmlns="http://www.w3.org/2000/svg" d="m200.363281 212.292969c2.972657-2.96875 2.972657-7.78125 0-10.753907-7.742187-7.738281-18.03125-12.003906-28.980469-12.003906-10.949218 0-21.242187 4.265625-28.980468 12.003906-2.96875 2.972657-2.96875 7.785157 0 10.753907s7.785156 2.96875 10.75 0c4.871094-4.867188 11.34375-7.550781 18.230468-7.550781 6.886719 0 13.359376 2.683593 18.226563 7.550781 1.484375 1.484375 3.429687 2.226562 5.375 2.226562 1.949219 0 3.894531-.738281 5.378906-2.226562zm0 0" fill="#000000" data-original="#000000" style="" class=""/><path xmlns="http://www.w3.org/2000/svg" d="m275.253906 201.542969c-2.96875 2.96875-2.96875 7.78125 0 10.75 2.96875 2.972656 7.785156 2.972656 10.753906 0 10.050782-10.050781 26.402344-10.046875 36.457032 0 1.484375 1.484375 3.429687 2.230469 5.375 2.230469 1.945312 0 3.890625-.742188 5.378906-2.230469 2.96875-2.96875 2.96875-7.78125-.003906-10.753907-15.980469-15.976562-41.984375-15.980468-57.960938.003907zm0 0" fill="#000000" data-original="#000000" style="" class=""/><path xmlns="http://www.w3.org/2000/svg" d="m270.761719 248.917969c-8.800781 8.800781-20.503907 13.648437-32.953125 13.648437-12.449219 0-24.152344-4.847656-32.953125-13.648437-2.972657-2.972657-7.785157-2.972657-10.753907 0-2.96875 2.96875-2.96875 7.78125 0 10.75 11.675782 11.675781 27.195313 18.105469 43.707032 18.105469 16.511718 0 32.035156-6.429688 43.710937-18.105469 2.96875-2.96875 2.96875-7.78125 0-10.75-2.972656-2.972657-7.785156-2.972657-10.757812 0zm0 0" fill="#000000" data-original="#000000" style="" class=""/></g></svg>
