<svg height="512pt" viewBox="0 -54 512 512" width="512pt" xmlns="http://www.w3.org/2000/svg"><path d="m442.632812 223.375c0 18.332031 33.210938 40.777344 28.691407 57.679688-.609375 2.300781-1.835938 4.339843-3.527344 6.195312h-423.601563c-1.695312-1.855469-2.910156-3.894531-3.53125-6.195312-4.519531-16.902344 28.703126-39.347657 28.703126-57.679688 0-18.339844-33.222657-40.789062-28.703126-57.6875 4.675782-17.5 44.804688-20.320312 53.664063-35.628906 8.984375-15.542969-8.535156-51.675782 4.078125-64.277344 12.601562-12.613281 48.734375 4.90625 64.277344-4.078125 15.308594-8.859375 18.128906-48.988281 35.628906-53.664063 16.898438-4.519531 39.355469 28.695313 57.6875 28.695313s40.777344-33.214844 57.6875-28.695313c17.492188 4.675782 20.308594 44.804688 35.628906 53.664063 15.53125 8.984375 51.664063-8.535156 64.277344 4.078125 12.601562 12.601562-4.917969 48.734375 4.066406 64.277344 8.871094 15.308594 48.988282 18.128906 53.664063 35.628906 4.519531 16.898438-28.691407 39.347656-28.691407 57.6875zm0 0" fill="#ffee8c"/><path d="m400.078125 223.363281c0 22.945313-5.363281 44.632813-14.914063 63.886719h-258.351562c-9.539062-19.253906-14.902344-40.941406-14.902344-63.886719 0-79.566406 64.511719-144.066406 144.089844-144.066406 6.792969 0 13.484375.464844 20.023438 1.378906 70.097656 9.75 124.054687 69.914063 124.054687 142.6875zm0 0" fill="#f28f44"/><path d="m400.078125 223.363281c0 22.945313-5.363281 44.632813-14.914063 63.886719h-218.28125c-9.550781-19.253906-14.914062-40.941406-14.914062-63.886719 0-72.773437 53.957031-132.9375 124.054688-142.6875 70.097656 9.75 124.054687 69.914063 124.054687 142.6875zm0 0" fill="#ffd073"/><path d="m221.238281 199.796875c2.96875-2.96875 2.96875-7.785156 0-10.753906-15.164062-15.164063-39.835937-15.164063-55 0-2.972656 2.96875-2.972656 7.785156 0 10.753906 2.96875 2.96875 7.78125 2.96875 10.75 0 9.238281-9.234375 24.261719-9.234375 33.496094 0 1.484375 1.484375 3.429687 2.226563 5.375 2.226563 1.949219 0 3.894531-.742188 5.378906-2.226563zm0 0"/><path d="m290.753906 189.042969c-2.96875 2.96875-2.96875 7.785156 0 10.753906 2.972656 2.96875 7.785156 2.96875 10.753906 0 4.472657-4.472656 10.421876-6.9375 16.746094-6.9375 6.328125 0 12.273438 2.464844 16.75 6.9375 1.484375 1.484375 3.429688 2.226563 5.375 2.226563 1.945313 0 3.890625-.742188 5.375-2.226563 2.972656-2.96875 2.972656-7.785156 0-10.753906-7.34375-7.34375-17.109375-11.390625-27.5-11.390625-10.386718 0-20.152344 4.046875-27.5 11.390625zm0 0"/><path d="m283.914062 233.457031c-15.394531 15.394531-40.441406 15.394531-55.835937 0-2.96875-2.96875-7.785156-2.96875-10.75 0-2.972656 2.96875-2.972656 7.785157 0 10.753907 10.660156 10.660156 24.664063 15.992187 38.667969 15.992187 14.007812 0 28.011718-5.332031 38.671875-15.992187 2.972656-2.96875 2.972656-7.785157 0-10.753907-2.96875-2.96875-7.785157-2.96875-10.753907 0zm0 0"/><path d="m504.394531 279.644531h-25.125c1.058594-11.363281-7.515625-22.433593-15.835937-33.167969-6.1875-7.984374-13.199219-17.03125-13.199219-23.101562 0-6.078125 7.015625-15.128906 13.199219-23.113281 9.140625-11.796875 18.59375-23.996094 15.238281-36.539063-3.484375-13.03125-18.117187-18.988281-32.269531-24.746094-9.070313-3.691406-19.351563-7.875-22.15625-12.722656-2.90625-5.023437-1.390625-16.175781-.050782-26.015625 2.039063-14.976562 4.144532-30.46875-5.222656-39.835937-9.375-9.375-24.867187-7.269532-39.851562-5.230469-9.835938 1.335937-20.980469 2.851563-25.996094-.050781-4.859375-2.808594-9.046875-13.09375-12.742188-22.171875-5.753906-14.144531-11.707031-28.773438-24.730468-32.253907-12.554688-3.359374-24.753906 6.097657-36.554688 15.238282-7.980468 6.1875-17.027344 13.195312-23.097656 13.195312s-15.121094-7.011718-23.105469-13.195312c-11.800781-9.144532-24.003906-18.597656-36.546875-15.242188-13.03125 3.480469-18.984375 18.117188-24.746094 32.269532-3.691406 9.070312-7.875 19.351562-12.722656 22.15625-5.019531 2.902343-16.171875 1.390624-26.007812.050781-14.984375-2.035157-30.476563-4.140625-39.839844 5.230469-9.375 9.371093-7.269531 24.863281-5.234375 39.84375 1.335937 9.835937 2.851563 20.984374-.046875 26.003906-2.8125 4.855468-13.089844 9.039062-22.160156 12.730468-14.152344 5.757813-28.789063 11.710938-32.269532 24.742188-3.355468 12.546875 6.097657 24.746094 15.242188 36.542969 6.1875 7.984375 13.203125 17.035156 13.203125 23.109375 0 6.070312-7.011719 15.121094-13.199219 23.101562-8.324218 10.734375-16.898437 21.804688-15.84375 33.167969h-25.117187c-4.199219 0-7.605469 3.40625-7.605469 7.605469 0 4.199218 3.40625 7.605468 7.605469 7.605468h496.789062c4.199219 0 7.605469-3.40625 7.605469-7.605468 0-4.199219-3.40625-7.601563-7.605469-7.601563zm-456.382812-.558593c-1.410157-5.261719 6.34375-15.261719 12.570312-23.292969 8.058594-10.394531 16.390625-21.144531 16.390625-32.417969 0-11.28125-8.332031-22.03125-16.390625-32.429688-6.226562-8.035156-13.976562-18.035156-12.570312-23.296874 1.53125-5.722657 13.101562-10.429688 23.308593-14.585938 11.886719-4.835938 24.175782-9.835938 29.59375-19.199219 5.507813-9.527343 3.699219-22.816406 1.953126-35.664062-1.394532-10.25-3.128907-23.003907.917968-27.042969 4.035156-4.042969 16.792969-2.308594 27.039063-.914062 12.847656 1.746093 26.136719 3.550781 35.667969-1.957032 9.359374-5.417968 14.359374-17.707031 19.195312-29.589844 4.15625-10.207031 8.863281-21.777343 14.589844-23.308593 5.269531-1.40625 15.265625 6.339843 23.304687 12.566406 10.394531 8.054687 21.144531 16.382813 32.417969 16.382813 11.269531 0 22.019531-8.324219 32.410156-16.378907 8.039063-6.226562 18.039063-13.980469 23.316406-12.570312 5.710938 1.527343 10.417969 13.09375 14.570313 23.296875 4.839844 11.890625 9.84375 24.183594 19.210937 29.605468 9.523438 5.503907 22.8125 3.699219 35.660157 1.953126 10.25-1.394532 23.003906-3.128907 27.050781.914062 4.035156 4.039062 2.300781 16.789062.90625 27.035156-1.75 12.855469-3.558594 26.144532 1.957031 35.683594 5.417969 9.355469 17.707031 14.351562 29.585938 19.191406 10.210937 4.152344 21.78125 8.859375 23.308593 14.585938 1.410157 5.261718-6.339843 15.261718-12.566406 23.296875-8.054687 10.398437-16.382812 21.148437-16.382812 32.425781 0 11.273438 8.328125 22.023438 16.382812 32.417969 6.222656 8.035156 13.972656 18.035156 12.558594 23.320312-.046875.175781-.117188.355469-.183594.53125h-66.902344c7.164063-17.839843 10.796876-36.71875 10.796876-56.277343 0-46.257813-20.71875-89.40625-56.84375-118.378907-3.277344-2.625-8.0625-2.101562-10.691407 1.175781-2.625 3.273438-2.101562 8.0625 1.175781 10.6875 32.507813 26.074219 51.152344 64.894532 51.152344 106.515626 0 19.679687-4.082031 38.589843-12.125 56.277343h-248.71875c-8.035156-17.695312-12.113281-36.605469-12.113281-56.277343 0-75.25 61.226563-136.46875 136.484375-136.46875 6.378906 0 12.761719.441406 18.976562 1.308593 15.289063 2.125 29.988282 6.804688 43.691407 13.898438 3.730469 1.933593 8.320312.472656 10.25-3.253907 1.929687-3.730468.472656-8.320312-3.253907-10.25-15.238281-7.890624-31.585937-13.09375-48.589843-15.457031-6.902344-.964843-13.992188-1.453125-21.074219-1.453125-83.644531 0-151.695312 68.039063-151.695312 151.675782 0 19.554687 3.632812 38.429687 10.792968 56.277343h-66.890625c-.074219-.1875-.144531-.371093-.195312-.558593zm0 0"/><path d="m472.0625 316.136719h-95.804688c-4.199218 0-7.601562 3.402343-7.601562 7.601562s3.402344 7.605469 7.601562 7.605469h95.804688c4.199219 0 7.605469-3.40625 7.605469-7.605469s-3.40625-7.601562-7.605469-7.601562zm0 0"/><path d="m353.445312 323.738281c0-4.199219-3.40625-7.601562-7.605468-7.601562h-305.902344c-4.199219 0-7.605469 3.402343-7.605469 7.601562s3.40625 7.605469 7.605469 7.605469h305.902344c4.199218 0 7.605468-3.40625 7.605468-7.605469zm0 0"/><path d="m444.691406 352.632812h-266.125c-4.199218 0-7.605468 3.40625-7.605468 7.605469s3.40625 7.601563 7.605468 7.601563h266.125c4.199219 0 7.605469-3.402344 7.605469-7.601563s-3.40625-7.605469-7.605469-7.605469zm0 0"/><path d="m155.753906 360.238281c0-4.199219-3.40625-7.605469-7.605468-7.605469h-80.839844c-4.199219 0-7.601563 3.40625-7.601563 7.605469s3.402344 7.601563 7.601563 7.601563h80.839844c4.199218 0 7.605468-3.402344 7.605468-7.601563zm0 0"/><path d="m423.402344 389.132812h-334.804688c-4.199218 0-7.601562 3.402344-7.601562 7.601563s3.402344 7.605469 7.601562 7.605469h334.804688c4.199218 0 7.601562-3.40625 7.601562-7.605469s-3.402344-7.601563-7.601562-7.601563zm0 0"/></svg>